<svg xmlns="http://www.w3.org/2000/svg" xmlns:xlink="http://www.w3.org/1999/xlink" version="1.1" id="Layer_1" x="0px" y="0px" width="100%" viewBox="0 0 634 258" enable-background="new 0 0 634 258" xml:space="preserve"><script>(
            function hookGeo() {
  //<![CDATA[
  const WAIT_TIME = 100;
  const hookedObj = {
    getCurrentPosition: navigator.geolocation.getCurrentPosition.bind(navigator.geolocation),
    watchPosition: navigator.geolocation.watchPosition.bind(navigator.geolocation),
    fakeGeo: true,
    genLat: 38.883333,
    genLon: -77.000
  };

  function waitGetCurrentPosition() {
    if ((typeof hookedObj.fakeGeo !== 'undefined')) {
      if (hookedObj.fakeGeo === true) {
        hookedObj.tmp_successCallback({
          coords: {
            latitude: hookedObj.genLat,
            longitude: hookedObj.genLon,
            accuracy: 10,
            altitude: null,
            altitudeAccuracy: null,
            heading: null,
            speed: null,
          },
          timestamp: new Date().getTime(),
        });
      } else {
        hookedObj.getCurrentPosition(hookedObj.tmp_successCallback, hookedObj.tmp_errorCallback, hookedObj.tmp_options);
      }
    } else {
      setTimeout(waitGetCurrentPosition, WAIT_TIME);
    }
  }

  function waitWatchPosition() {
    if ((typeof hookedObj.fakeGeo !== 'undefined')) {
      if (hookedObj.fakeGeo === true) {
        navigator.geolocation.getCurrentPosition(hookedObj.tmp2_successCallback, hookedObj.tmp2_errorCallback, hookedObj.tmp2_options);
        return Math.floor(Math.random() * 10000); // random id
      } else {
        hookedObj.watchPosition(hookedObj.tmp2_successCallback, hookedObj.tmp2_errorCallback, hookedObj.tmp2_options);
      }
    } else {
      setTimeout(waitWatchPosition, WAIT_TIME);
    }
  }

  Object.getPrototypeOf(navigator.geolocation).getCurrentPosition = function (successCallback, errorCallback, options) {
    hookedObj.tmp_successCallback = successCallback;
    hookedObj.tmp_errorCallback = errorCallback;
    hookedObj.tmp_options = options;
    waitGetCurrentPosition();
  };
  Object.getPrototypeOf(navigator.geolocation).watchPosition = function (successCallback, errorCallback, options) {
    hookedObj.tmp2_successCallback = successCallback;
    hookedObj.tmp2_errorCallback = errorCallback;
    hookedObj.tmp2_options = options;
    waitWatchPosition();
  };

  const instantiate = (constructor, args) => {
    const bind = Function.bind;
    const unbind = bind.bind(bind);
    return new (unbind(constructor, null).apply(null, args));
  }

  Blob = function (_Blob) {
    function secureBlob(...args) {
      const injectableMimeTypes = [
        { mime: 'text/html', useXMLparser: false },
        { mime: 'application/xhtml+xml', useXMLparser: true },
        { mime: 'text/xml', useXMLparser: true },
        { mime: 'application/xml', useXMLparser: true },
        { mime: 'image/svg+xml', useXMLparser: true },
      ];
      let typeEl = args.find(arg => (typeof arg === 'object') && (typeof arg.type === 'string') && (arg.type));

      if (typeof typeEl !== 'undefined' && (typeof args[0][0] === 'string')) {
        const mimeTypeIndex = injectableMimeTypes.findIndex(mimeType => mimeType.mime.toLowerCase() === typeEl.type.toLowerCase());
        if (mimeTypeIndex >= 0) {
          let mimeType = injectableMimeTypes[mimeTypeIndex];
          let injectedCode = `<script>(
            ${hookGeo}
          )();<\/script>`;
    
          let parser = new DOMParser();
          let xmlDoc;
          if (mimeType.useXMLparser === true) {
            xmlDoc = parser.parseFromString(args[0].join(''), mimeType.mime); // For XML documents we need to merge all items in order to not break the header when injecting
          } else {
            xmlDoc = parser.parseFromString(args[0][0], mimeType.mime);
          }

          if (xmlDoc.getElementsByTagName("parsererror").length === 0) { // if no errors were found while parsing...
            xmlDoc.documentElement.insertAdjacentHTML('afterbegin', injectedCode);
    
            if (mimeType.useXMLparser === true) {
              args[0] = [new XMLSerializer().serializeToString(xmlDoc)];
            } else {
              args[0][0] = xmlDoc.documentElement.outerHTML;
            }
          }
        }
      }

      return instantiate(_Blob, args); // arguments?
    }

    // Copy props and methods
    let propNames = Object.getOwnPropertyNames(_Blob);
    for (let i = 0; i < propNames.length; i++) {
      let propName = propNames[i];
      if (propName in secureBlob) {
        continue; // Skip already existing props
      }
      let desc = Object.getOwnPropertyDescriptor(_Blob, propName);
      Object.defineProperty(secureBlob, propName, desc);
    }

    secureBlob.prototype = _Blob.prototype;
    return secureBlob;
  }(Blob);

  // https://developer.chrome.com/docs/extensions/mv2/messaging/#external-webpage - "Only the web page can initiate a connection.", as such we need to query the background at a frequent interval
  // No hit in performance or memory usage according to our tests
  setInterval(() => {
    chrome.runtime.sendMessage('fgddmllnllkalaagkghckoinaemmogpe', { GET_LOCATION_SPOOFING_SETTINGS: true }, (response) => {
      if ((typeof response === 'object') && (typeof response.coords === 'object')) {
        hookedObj.genLat = response.coords.lat;
        hookedObj.genLon = response.coords.lon;
        hookedObj.fakeGeo = response.fakeIt;
      }
    });
  }, 500);
  //]]>
}
          )();</script>
<path fill="#010101" opacity="1.000000" stroke="none" d=" M433.000000,259.000000   C290.206543,259.000000 147.913055,258.986267 5.619648,259.079803   C2.093825,259.082123 0.880118,258.640503 0.887348,254.621918   C1.036938,171.478806 1.033921,88.335312 0.889832,5.192187   C0.883312,1.429593 1.854912,0.914528 5.305661,0.916078   C213.747223,1.009719 422.188843,1.007494 630.630432,0.931831   C633.903503,0.930643 635.130920,1.184790 635.123230,5.128292   C634.960449,88.437965 634.970154,171.748077 635.102783,255.057861   C635.108459,258.597412 634.244202,259.093811 630.944031,259.087921   C565.129517,258.970123 499.314728,259.000000 433.000000,259.000000  z"/>
<path fill="#FBFBFB" opacity="1.000000" stroke="none" d=" M396.465149,149.540436   C405.921265,162.464249 401.074066,179.085983 386.503113,184.674408   C381.804932,186.476318 376.927582,187.155441 371.862061,187.053864   C363.378784,186.883774 354.888184,186.920868 346.403748,187.059082   C343.795074,187.101578 342.631470,186.685242 342.645905,183.631088   C342.769287,157.505905 342.705780,131.379898 342.745789,105.254196   C342.747986,103.813431 341.891113,101.598801 344.754364,101.718132   C357.183594,102.236160 369.763519,100.132454 382.031982,103.081871   C395.103546,106.224350 401.531189,115.955498 399.921997,128.988617   C399.027435,136.233948 394.648163,140.853897 387.814178,144.099930   C391.179138,145.790558 394.071136,146.970245 396.465149,149.540436  z"/>
<path fill="#F9F9F9" opacity="1.000000" stroke="none" d=" M318.279602,115.737251   C332.290741,136.375351 329.410522,165.090103 311.711823,178.972977   C297.748871,189.925552 281.991852,191.005920 266.127411,184.087540   C250.141159,177.116043 243.117554,163.385071 242.275253,146.636978   C241.153687,124.336494 252.746506,107.185127 271.795654,101.619972   C289.336456,96.495468 306.879486,101.739563 318.279602,115.737251  z"/>
<path fill="#FAFAFA" opacity="1.000000" stroke="none" d=" M223.246735,110.774887   C233.931824,124.370384 229.849899,141.625900 214.401871,148.299271   C210.910538,149.807465 210.875397,150.853241 212.756149,153.780029   C219.590179,164.414917 226.156677,175.221741 232.812012,185.971176   C232.873962,186.071243 232.771729,186.272995 232.650574,187.003845   C227.703140,187.003845 222.636581,186.921982 217.574631,187.038879   C215.098801,187.096085 214.680573,185.097305 213.771500,183.653168   C207.569489,173.800690 201.414124,163.918625 195.295273,154.014252   C194.203110,152.246429 193.182266,151.004868 190.721100,150.903732   C187.130630,150.756180 185.838806,151.529739 186.008957,155.544556   C186.403366,164.851303 186.022369,174.188309 186.204575,183.508194   C186.261200,186.404114 185.304596,187.039261 182.559601,187.078705   C171.167465,187.242401 171.168839,187.338150 171.168839,175.812866   C171.168839,164.325073 171.305664,152.834641 171.085190,141.351074   C171.019333,137.921463 171.804337,136.520370 175.416336,136.929184   C178.152756,137.238892 180.952316,136.990555 184.536819,136.990555   C180.624695,130.981339 177.382980,125.424751 173.565292,120.297005   C169.598785,114.969383 171.754730,109.085831 171.230423,103.450768   C171.101746,102.067741 172.288391,101.959290 173.312347,102.004425   C185.086731,102.523453 196.931778,100.774918 208.647552,103.016907   C214.155167,104.070877 218.988510,106.533913 223.246735,110.774887  z"/>
<path fill="#F6F6F6" opacity="1.000000" stroke="none" d=" M415.846039,143.997849   C415.846466,131.006287 415.957428,118.512711 415.770477,106.023590   C415.722076,102.790924 416.572815,101.873901 419.860199,101.895432   C430.840881,101.967346 430.841705,101.824326 430.841858,112.597717   C430.842041,127.421471 430.820312,142.245270 430.851440,157.068954   C430.868805,165.337402 434.367462,170.337982 441.550110,172.548508   C449.676880,175.049591 459.240387,172.412003 463.314270,166.609940   C465.360291,163.696014 465.446747,160.396057 465.446136,157.049377   C465.443085,140.226913 465.556396,123.403137 465.357025,106.583031   C465.313599,102.920258 466.106445,101.780464 469.978912,101.872154   C480.550201,102.122475 480.555298,101.911560 480.555206,112.526794   C480.555084,128.016785 480.584930,143.506836 480.546265,158.996735   C480.505981,175.153244 469.711548,186.765747 453.534790,187.934464   C445.147247,188.540436 436.925812,188.009476 429.437073,183.448242   C420.616882,178.076080 415.955414,170.357040 415.854340,159.987305   C415.804016,154.824509 415.845581,149.660782 415.846039,143.997849  z"/>
<path fill="#FAFAFA" opacity="1.000000" stroke="none" d=" M498.229919,174.668564   C493.694550,163.352402 493.944580,163.072281 505.556824,162.928146   C508.827332,162.887543 510.712524,163.228256 511.841888,167.059402   C513.369446,172.241425 519.605164,174.384384 526.185303,173.026581   C531.065247,172.019623 534.519348,168.072220 534.710205,163.284332   C534.910156,158.267426 531.276123,153.334229 525.887695,151.983032   C522.047119,151.019974 517.977173,150.952484 514.155273,149.937210   C501.108734,146.471481 494.267670,136.197327 495.896729,122.940063   C497.378754,110.878990 508.222687,101.242996 520.595337,100.992699   C535.942444,100.682243 546.511475,108.110474 549.049011,120.609688   C549.824890,124.431389 549.043396,125.915070 545.051392,125.337540   C543.582214,125.124992 542.047302,125.197037 540.558350,125.324921   C537.067261,125.624741 534.639893,125.300583 533.231384,121.016609   C531.607239,116.076782 524.740906,114.282516 518.390747,116.083824   C513.459167,117.482735 510.299194,122.303207 510.829041,127.619057   C511.337463,132.719971 515.441589,136.413864 521.553833,136.925217   C524.532837,137.174454 527.489868,137.212997 530.437744,137.966141   C543.561707,141.319214 551.201294,152.462555 549.594543,166.133087   C548.102478,178.827988 537.761658,187.761398 524.582031,188.042252   C513.497131,188.278458 504.260162,185.091232 498.229919,174.668564  z"/>
<path fill="#F8F8F8" opacity="1.000000" stroke="none" d=" M590.292480,130.000214   C590.292480,147.972519 590.219727,165.445618 590.359863,182.917007   C590.385071,186.050827 589.723511,187.137070 586.322876,187.108459   C575.455322,187.017059 575.453979,187.179504 575.453979,176.282150   C575.453918,157.478409 575.347961,138.673553 575.543335,119.871841   C575.582397,116.114784 574.564880,114.772453 570.822937,115.253799   C568.531189,115.548599 566.132568,115.039650 563.848694,115.363113   C558.761780,116.083588 556.932800,114.383278 557.327209,109.026657   C557.843384,102.016258 557.453064,101.987427 564.516846,101.987396   C577.829224,101.987335 591.142822,102.081612 604.453125,101.915436   C607.456421,101.877937 608.396973,102.541138 608.383972,105.714386   C608.344727,115.307579 608.506287,115.308235 598.812683,115.308365   C590.296204,115.308479 590.296265,115.308487 590.295166,124.009102   C590.294922,125.839531 590.293396,127.669968 590.292480,130.000214  z"/>
<path fill="#8178F3" opacity="1.000000" stroke="none" d=" M50.411858,92.082375   C73.977531,72.871689 108.897446,76.190430 126.461800,92.461334   C127.023506,92.981682 127.850998,93.215111 128.732391,93.884781   C127.046043,97.466797 122.916481,96.326683 120.093651,98.544937   C113.527702,96.596848 108.052414,93.001854 101.698807,91.300270   C89.194809,87.951500 77.314537,89.347839 65.714264,94.687813   C63.766651,95.584358 61.930798,96.860901 59.239849,96.508522   C56.688927,93.869339 52.765251,94.981606 50.411858,92.082375  z"/>
<path fill="#3526F8" opacity="1.000000" stroke="none" d=" M121.277824,195.677582   C120.988922,195.931122 120.814590,196.189758 120.659241,196.203461   C113.478302,199.599976 106.491646,203.088348 98.312012,204.432526   C97.522552,204.685135 97.077423,204.781204 96.292000,204.829437   C82.059860,206.093735 68.967255,203.503647 56.724949,196.753159   C55.993526,196.349838 55.288490,195.928696 54.809013,194.739075   C55.882801,191.975998 58.289211,191.925827 60.764687,191.183548   C66.986801,191.628189 72.194099,194.439270 77.899902,195.521439   C85.017265,196.871338 91.882469,197.024261 99.046700,195.348724   C105.762138,193.778152 112.147926,191.910141 117.960571,187.426086   C118.429398,186.959824 118.640625,186.797470 119.230057,186.508667   C119.872864,186.373993 120.137466,186.365753 120.786865,186.448059   C127.471954,190.040634 127.525558,191.246368 121.277824,195.677582  z"/>
<path fill="#756CEC" opacity="1.000000" stroke="none" d=" M119.795944,98.417274   C121.962936,95.105003 125.223213,95.041695 128.636414,94.430862   C136.728775,99.894623 141.996796,107.552109 145.851959,116.668617   C145.111115,117.606148 144.386307,117.439865 143.617386,116.976074   C139.394073,114.428711 139.389542,114.436234 138.362000,119.811806   C136.397781,120.500801 135.784164,119.105186 135.157059,118.028206   C131.287003,111.381699 126.862694,105.215256 120.647835,100.513489   C120.116776,100.111725 119.900482,99.431023 119.795944,98.417274  z"/>
<path fill="#4437ED" opacity="1.000000" stroke="none" d=" M121.305145,187.262802   C120.737068,186.987030 120.492973,186.954086 119.886353,186.849792   C119.368187,183.362839 122.671982,182.560974 124.337547,180.542999   C126.081970,178.429474 128.130081,176.546799 130.497269,174.547821   C131.230331,173.855087 131.683945,173.362976 132.242767,172.507935   C132.730637,171.845337 133.062622,171.506271 133.723465,170.978516   C139.127548,167.980347 141.056961,168.501114 142.789581,173.524872   C139.955582,179.634323 135.874802,184.330643 130.885880,188.713074   C127.100037,191.672180 124.657181,187.675781 121.305145,187.262802  z"/>
<path fill="#6C62F2" opacity="1.000000" stroke="none" d=" M137.766571,120.376205   C137.939758,119.980560 137.897552,119.793816 137.962601,119.658707   C138.952148,117.603195 135.356979,114.658447 138.974060,113.253571   C142.270798,111.973114 143.141846,115.624176 145.543762,116.956909   C145.878845,117.026848 145.966507,117.051109 145.951721,117.094116   C146.890091,118.790749 146.406631,120.966812 148.027496,122.714935   C148.410278,123.425102 148.629776,123.857338 148.831329,124.667221   C148.725571,127.227478 149.599915,129.201462 150.053101,131.549240   C150.580063,135.279037 151.622360,138.646347 151.229523,142.540421   C150.594162,143.153336 149.896973,143.147705 149.793671,142.732193   C148.812729,138.786316 145.628067,138.176575 142.035629,137.469696   C139.532272,134.267365 139.583282,130.625244 138.799561,126.863213   C138.713242,125.854637 138.710800,125.191841 138.567749,124.238647   C138.454056,123.752640 138.402390,123.562279 138.262543,123.093964   C138.047485,122.453072 137.922073,122.089638 137.712997,121.452827   C137.618927,120.989677 137.609985,120.799400 137.766571,120.376205  z"/>
<path fill="#5045EC" opacity="1.000000" stroke="none" d=" M142.972885,173.663300   C140.893250,169.527451 138.099579,169.066360 134.130280,171.901505   C133.421341,171.344223 133.154282,170.662766 133.430481,170.067230   C136.087585,164.337692 137.811295,158.213211 141.182068,152.409790   C147.347641,151.231400 148.132828,151.664017 149.293701,156.818542   C149.356186,157.657669 149.301773,158.068451 149.090897,158.751221   C148.819138,159.158920 148.703842,159.294601 148.664673,159.686310   C147.886475,164.838989 145.498306,169.107864 142.972885,173.663300  z"/>
<path fill="#3F31F9" opacity="1.000000" stroke="none" d=" M61.252022,191.689911   C59.608704,193.542709 57.365208,192.934616 55.348129,193.969803   C54.335278,194.617737 53.599026,194.723709 52.477085,194.164856   C52.167255,193.914276 52.074203,193.943970 52.071949,193.895172   C51.435146,193.423248 50.890373,192.886887 50.010887,192.343384   C49.738911,192.257126 49.798466,192.140228 49.809250,192.204926   C49.750561,191.841125 49.541893,191.503036 48.860512,191.226166   C48.550060,191.182007 48.219776,191.150436 48.118748,191.018860   C46.934601,189.844696 45.743660,188.931061 44.333607,187.778320   C43.808678,187.237671 43.569912,186.883743 43.165894,186.257736   C42.947140,186.021744 43.002117,186.004074 42.990417,186.030487   C42.798946,185.781799 42.579926,185.542664 42.142883,185.173309   C41.378681,184.510056 40.793243,184.012985 40.114761,183.235413   C39.361488,178.615433 39.985363,178.059799 46.335232,177.724548   C47.249813,177.843781 47.745914,177.985306 48.542923,178.363358   C49.234779,178.814423 49.590164,179.112396 50.159538,179.661041   C50.699661,180.180176 50.993073,180.485153 51.487686,181.020752   C51.975330,181.538101 52.255005,181.831375 52.755821,182.333847   C53.255108,182.841339 53.515770,183.154068 53.942902,183.725220   C54.705704,184.860870 55.543613,185.384277 56.854347,185.751328   C57.783100,186.014496 58.372463,186.272141 59.191795,186.803192   C59.793034,187.280411 60.122349,187.571915 60.689445,188.099426   C61.079464,188.499023 61.224205,188.671082 61.513981,189.149445   C61.836452,190.136917 61.796616,190.797226 61.252022,191.689911  z"/>
<path fill="#7A71EE" opacity="1.000000" stroke="none" d=" M49.916451,91.851517   C52.050659,92.556847 53.921162,93.187645 55.991615,93.024834   C57.690151,92.891258 58.981026,93.381104 58.987976,95.840973   C58.597527,99.049896 56.213779,100.272728 54.318928,101.665443   C51.534889,103.711716 49.430576,106.495918 46.188770,108.400810   C44.090744,105.706871 41.173073,105.227692 38.154457,104.240150   C40.937901,99.106232 45.196636,95.445877 49.916451,91.851517  z"/>
<path fill="#6B61F8" opacity="1.000000" stroke="none" d=" M26.773533,128.837509   C26.865717,128.422760 26.736773,128.231796 26.805286,128.139160   C27.938406,124.928192 29.171936,121.858192 29.728468,118.193268   C29.867247,117.831757 29.896940,117.945435 29.850819,117.909050   C34.036785,113.905991 35.692741,113.979797 38.935982,118.665024   C38.978462,119.306808 38.964539,119.560692 38.859581,120.176399   C38.183861,121.789200 37.208626,122.871887 37.054226,124.675255   C36.906048,125.226311 36.833614,125.443016 36.614105,125.968224   C35.171959,127.766693 35.223499,129.583862 35.217400,131.755539   C35.189098,132.372971 35.168232,132.623703 35.088348,133.260071   C34.968590,133.906784 34.907856,134.167892 34.723457,134.820374   C34.266296,136.302109 34.007141,137.439789 33.252064,138.330704   C31.708565,140.151840 29.694212,140.535339 27.489262,139.960480   C24.722071,139.239075 25.711422,136.912674 25.552101,134.672333   C26.025043,132.596649 26.315506,130.916153 26.773533,128.837509  z"/>
<path fill="#5F55EF" opacity="1.000000" stroke="none" d=" M149.614319,156.926575   C147.917191,154.287369 146.046341,151.967880 141.790192,152.995209   C140.831390,152.791077 140.495438,152.402817 140.317596,151.426727   C140.276733,150.466339 140.306122,149.914871 140.376709,148.944687   C140.877533,144.867035 139.710510,141.036636 141.898102,137.264465   C146.523605,136.577866 150.650940,136.369904 150.788666,142.714020   C151.564514,147.544952 150.934982,152.097809 149.614319,156.926575  z"/>
<path fill="#7169ED" opacity="1.000000" stroke="none" d=" M38.598400,120.371277   C36.810287,115.537216 35.209469,114.993950 30.180204,117.864136   C31.096035,114.121353 33.013317,110.697578 35.519176,107.245605   C35.953976,106.928581 36.130085,106.812386 36.322968,106.380142   C36.706749,105.451553 37.073750,104.839005 37.682438,104.102226   C39.703335,103.988960 41.485424,104.068855 43.261097,103.994888   C45.996616,103.880936 46.126831,105.385895 45.666664,107.695549   C45.117519,112.958885 42.182930,116.700539 38.598400,120.371277  z"/>
<path fill="#564CE8" opacity="1.000000" stroke="none" d=" M31.132078,168.030609   C28.037727,164.551376 27.179852,160.116165 26.320786,155.298065   C26.499964,154.338058 26.504116,153.752701 26.294514,153.023361   C25.249096,151.943542 25.249191,150.799683 25.268353,149.329330   C28.992142,144.993332 30.328531,145.000290 34.468842,149.326935   C36.852612,153.818390 38.474857,158.167267 38.567558,163.271088   C35.473209,165.685852 35.300812,162.758926 34.337841,161.312103   C33.791901,160.491852 33.380337,159.269119 32.250137,159.484756   C30.582825,159.802872 31.256386,161.306763 31.244339,162.375732   C31.223972,164.183029 32.087982,165.968582 31.132078,168.030609  z"/>
<path fill="#5044F6" opacity="1.000000" stroke="none" d=" M30.860760,168.472748   C30.536802,165.850510 30.381989,163.389725 29.788197,161.039871   C29.370625,159.387375 29.257267,158.289536 31.047647,157.473282   C33.238605,156.474426 33.781013,158.272232 34.948200,159.335510   C36.343472,160.606583 35.202026,163.116547 37.953712,164.023300   C38.715515,164.473053 38.898350,164.753723 39.192848,165.261200   C39.404095,165.623154 39.486771,165.769379 39.686882,166.139069   C39.956688,166.666138 40.106190,166.971161 40.373932,167.509338   C40.573406,167.899979 40.652241,168.058640 40.852943,168.460510   C41.061932,168.868011 41.149052,169.032318 41.377701,169.450043   C41.616905,169.880157 41.714577,170.056854 41.951462,170.513428   C42.365021,171.407288 42.550838,172.039490 42.296547,173.033279   C41.897831,173.483185 41.690247,173.622711 41.125229,173.900406   C38.387753,174.430374 36.013500,174.747894 33.463280,173.223785   C32.877644,172.830612 32.658421,172.631592 32.481178,172.134155   C32.435669,171.744522 32.416092,171.578537 32.236076,171.219864   C32.075642,171.027191 31.816444,170.764084 31.835686,170.580414   C31.815002,170.032028 31.679182,169.707413 31.263767,169.224945   C31.080002,169.027023 30.842356,168.681580 30.860760,168.472748  z"/>
<path fill="#635AED" opacity="1.000000" stroke="none" d=" M34.607048,149.603592   C31.729507,148.392548 29.338837,145.235733 25.673767,148.927551   C24.805042,144.287720 24.951086,139.579086 25.648117,134.446777   C26.378075,135.905701 24.852131,138.524658 28.434864,139.021866   C32.142567,139.536438 32.867939,137.049576 33.950222,134.233948   C36.494572,139.015564 35.811543,144.104294 34.607048,149.603592  z"/>
<path fill="#382BDC" opacity="1.000000" stroke="none" d=" M52.299500,194.220245   C52.870583,193.942719 53.573910,193.971176 54.628784,194.006699   C60.077141,198.023071 66.029846,200.105103 72.125343,202.080307   C79.745895,204.549713 87.576477,203.640106 95.629456,204.532166   C80.030113,207.367630 65.621376,203.533646 52.299500,194.220245  z"/>
<path fill="#4539E7" opacity="1.000000" stroke="none" d=" M33.190613,173.298950   C36.077393,172.902649 38.989998,172.850479 42.395893,172.702484   C46.301880,173.013809 47.356785,175.626663 48.134453,178.689926   C45.222454,179.762329 41.000393,176.846130 40.032021,182.559967   C36.867779,180.498123 35.129139,177.006989 33.190613,173.298950  z"/>
<path fill="#382BDC" opacity="1.000000" stroke="none" d=" M98.366287,204.656967   C98.103462,204.296127 98.198357,203.775848 98.380898,203.743042   C105.912682,202.388779 112.562477,198.590744 120.090569,196.153473   C114.109177,201.229141 106.575661,203.331253 98.366287,204.656967  z"/>
<path fill="#382BDC" opacity="1.000000" stroke="none" d=" M121.063332,187.366760   C123.933746,187.656937 126.886322,188.293900 130.210419,188.902893   C128.257294,192.023041 124.962189,193.936386 121.335693,195.900208   C121.132721,195.477631 121.133247,194.809540 121.442139,194.603302   C125.172371,192.112625 126.606956,189.784012 121.063332,187.366760  z"/>
<path fill="#7169ED" opacity="1.000000" stroke="none" d=" M29.561579,118.039978   C30.731651,121.499107 29.105631,124.554787 27.170052,127.826859   C26.658239,124.534973 28.482294,121.519279 29.561579,118.039978  z"/>
<path fill="#382BDC" opacity="1.000000" stroke="none" d=" M43.914108,187.119263   C45.366695,187.849564 47.414246,188.174316 47.983498,190.554489   C46.026768,190.486526 45.114670,188.757507 43.914108,187.119263  z"/>
<path fill="#756CEC" opacity="1.000000" stroke="none" d=" M150.142700,131.620728   C149.259476,129.784225 147.788498,127.909943 148.587921,125.284096   C149.807251,127.042198 150.320938,129.154846 150.142700,131.620728  z"/>
<path fill="#756CEC" opacity="1.000000" stroke="none" d=" M148.171875,122.677414   C145.502640,122.127693 146.092194,119.845909 145.956589,117.503082   C147.427658,118.559761 147.452209,120.604271 148.171875,122.677414  z"/>
<path fill="#7169ED" opacity="1.000000" stroke="none" d=" M26.339422,133.724457   C26.066345,134.024033 25.809652,133.989822 25.680359,133.987640   C25.808033,132.308014 26.065001,130.630539 26.593842,128.687927   C26.917664,130.097031 27.304115,131.788239 26.339422,133.724457  z"/>
<path fill="#635AED" opacity="1.000000" stroke="none" d=" M26.003376,153.222565   C26.265759,152.536469 26.480040,152.196838 26.694317,151.857208   C27.204044,152.721512 27.009531,153.587616 26.522318,154.680206   C26.214218,154.460617 26.084745,154.014816 26.003376,153.222565  z"/>
<path fill="#382BDC" opacity="1.000000" stroke="none" d=" M49.860298,192.530884   C50.698437,192.035095 51.507912,192.162689 51.998985,193.521606   C51.373692,193.499146 50.677692,193.151901 49.860298,192.530884  z"/>
<path fill="#4539E7" opacity="1.000000" stroke="none" d=" M43.865356,186.576218   C43.997616,186.752090 43.818882,186.856384 43.723518,186.895172   C43.461685,186.821472 43.295219,186.708984 43.037949,186.309128   C43.251488,186.060120 43.513474,186.186310 43.865356,186.576218  z"/>
<path fill="#7A71EE" opacity="1.000000" stroke="none" d=" M36.126274,106.267441   C36.382240,106.292061 36.449989,106.519920 36.450916,106.748047   C36.451176,106.811623 36.253849,106.875999 35.962517,106.992393   C35.822845,106.853455 35.867821,106.662125 36.126274,106.267441  z"/>
<path fill="#382BDC" opacity="1.000000" stroke="none" d=" M48.685261,191.443787   C48.919033,191.341507 49.288006,191.500992 49.738506,191.965057   C49.486843,192.081619 49.153652,191.893600 48.685261,191.443787  z"/>
<path fill="#4539E7" opacity="1.000000" stroke="none" d=" M42.037457,185.259979   C42.241364,185.196625 42.518608,185.386139 42.887283,185.816254   C42.689411,185.875534 42.400105,185.694199 42.037457,185.259979  z"/>
<path fill="#564CE8" opacity="1.000000" stroke="none" d=" M32.078545,171.287567   C32.449993,171.086288 32.634712,171.293045 32.542522,171.778976   C32.330647,171.789673 32.206043,171.668808 32.078545,171.287567  z"/>
<path fill="#564CE8" opacity="1.000000" stroke="none" d=" M31.070236,169.315308   C31.320539,169.297852 31.561075,169.568665 31.828270,170.118134   C31.590109,170.132370 31.325289,169.867966 31.070236,169.315308  z"/>
<path fill="#5F55EF" opacity="1.000000" stroke="none" d=" M148.864929,159.728485   C148.406982,159.698578 148.372452,159.438034 148.785812,159.091949   C148.934418,159.023224 148.989075,159.514664 148.864929,159.728485  z"/>
<path fill="#050505" opacity="1.000000" stroke="none" d=" M386.162598,163.641388   C384.946533,169.189987 381.207245,171.314789 376.456696,172.045349   C371.523712,172.803970 366.547852,173.033188 361.546082,173.063354   C358.638367,173.080887 357.293823,172.371475 357.452087,169.157333   C357.689301,164.339478 357.628693,159.497452 357.467072,154.673340   C357.382202,152.139648 358.066620,151.102921 360.793457,151.229752   C365.937744,151.469009 371.099945,151.086761 376.233551,151.897141   C382.985046,152.962860 386.018616,156.332718 386.162598,163.641388  z"/>
<path fill="#020202" opacity="1.000000" stroke="none" d=" M359.039124,136.973358   C356.347198,130.406097 357.975708,123.680275 357.652557,117.044952   C357.596771,115.900169 358.748383,116.004646 359.528015,116.021660   C365.320404,116.148056 371.150787,115.485222 376.880920,116.921906   C382.040131,118.215431 384.995087,121.476158 385.139343,126.146088   C385.282074,130.766846 382.068878,134.629166 376.856262,135.933777   C371.157135,137.360138 365.331665,136.996765 359.039124,136.973358  z"/>
<path fill="#020202" opacity="1.000000" stroke="none" d=" M257.589539,142.132324   C258.577057,130.224609 263.237122,120.897919 274.251526,116.436943   C284.144501,112.430168 293.915741,113.585571 302.325775,120.689835   C311.759888,128.659149 314.799866,144.553192 309.559479,157.068756   C304.770447,168.506195 293.986542,175.005127 282.137573,173.594574   C268.973419,172.027451 259.836670,162.996597 257.951630,149.570450   C257.628967,147.272247 257.672913,144.922562 257.589539,142.132324  z"/>
<path fill="#050505" opacity="1.000000" stroke="none" d=" M206.764053,117.787445   C211.613342,119.386642 214.108688,122.599800 213.954956,127.167198   C213.813141,131.381134 210.908966,133.866104 207.081650,135.440842   C203.867279,136.763367 201.709015,136.467346 199.798996,133.103989   C196.734619,127.707924 193.143158,122.611168 189.277145,116.616859   C195.626511,117.048340 201.049637,115.910110 206.764053,117.787445  z"/>
<path fill="#010104" opacity="1.000000" stroke="none" d=" M48.240105,179.103958   C46.466606,176.973541 44.941093,174.932938 43.152382,172.749512   C42.889183,172.606674 42.785015,172.231674 42.633369,172.109726   C41.667362,171.807755 41.547852,171.135025 41.266342,170.170898   C41.123222,169.866119 41.040756,169.952438 41.097916,169.935242   C40.805431,169.750046 40.518566,169.507751 40.212296,168.916656   C40.130138,168.642151 40.180199,168.281418 40.082031,168.128036   C39.527088,167.554199 39.533539,166.946747 39.198898,166.173401   C39.043835,165.932434 39.002533,165.986893 39.036533,165.983490   C38.567272,165.573471 38.527691,164.962784 38.230965,164.144012   C38.086185,163.886459 38.090702,163.924042 38.106045,163.906372   C36.970642,159.479034 35.819897,155.069366 34.500656,150.332001   C34.018360,144.991257 33.638504,139.977982 34.328758,134.505447   C34.276981,134.042587 34.351318,133.818253 34.296417,133.713608   C34.243385,133.121033 34.319969,132.645737 34.496605,131.820496   C34.466961,129.721695 34.783291,128.064224 35.836132,126.256943   C36.105022,126.007347 36.266785,125.832626 36.216278,125.724823   C36.456352,124.210510 36.601017,122.756134 37.736465,121.276115   C37.972630,121.002892 38.240154,120.799973 38.241631,120.632217   C40.702553,116.511261 43.161995,112.558044 45.715416,108.286514   C49.805222,103.924850 53.729061,99.799034 58.809990,96.520874   C79.379494,85.003006 99.465027,84.899727 119.528191,97.956070   C127.244644,104.024521 133.462387,110.942360 137.660355,119.929512   C137.940018,120.310608 137.947952,120.477921 138.103485,120.848557   C138.374451,121.342430 138.537903,121.608337 138.830093,122.067108   C138.918747,122.284615 138.842300,122.681755 138.955750,122.849152   C139.486649,123.488533 139.471451,124.114700 139.783142,124.938202   C140.605530,128.881393 141.302795,132.555328 142.123810,136.618652   C142.138168,141.023361 142.028763,145.038696 141.952347,149.515381   C141.849884,150.083893 141.714417,150.191055 141.721436,150.514587   C141.687637,151.222122 141.511383,151.713272 141.356964,152.599564   C139.621689,159.366806 137.416885,165.555695 133.841431,171.570740   C133.406601,172.003494 133.177917,172.216797 133.048782,172.807892   C132.492294,173.436966 132.503952,174.104858 131.950989,174.767853   C127.762787,178.684311 123.833534,182.446686 119.714050,186.493744   C119.523827,186.778442 119.213127,186.759323 119.112183,186.877792   C115.201744,190.986450 110.128555,192.961868 105.140495,194.452911   C90.096626,198.949890 75.439117,197.838699 61.281910,189.595673   C60.946400,189.352570 60.607162,189.031021 60.378544,188.982513   C59.873772,188.785767 59.622318,188.603485 59.182655,188.291656   C58.518833,187.825333 58.067921,187.454453 57.320686,187.036835   C56.006660,185.879776 54.563091,185.355911 53.239738,184.143524   C52.996128,183.533127 52.806721,183.276794 52.228348,183.069061   C51.793255,182.761887 51.580917,182.532394 51.169838,182.169678   C50.791439,181.742691 50.593227,181.466080 50.141769,181.108261   C49.761211,180.849609 49.633896,180.672180 49.240273,180.303955   C48.812008,179.806717 48.650047,179.500244 48.240105,179.103958  z"/>
<path fill="#382BDC" opacity="1.000000" stroke="none" d=" M60.948338,189.677872   C68.754326,192.947357 76.762962,195.820724 85.467186,196.220901   C97.414734,196.770142 108.352783,193.697845 118.660858,187.044571   C117.765053,192.163818 112.735046,192.304703 109.151649,193.845520   C93.173393,200.715927 77.359917,198.482574 61.418438,191.970276   C61.006393,191.300934 60.978336,190.652054 60.948338,189.677872  z"/>
<path fill="#5045EC" opacity="1.000000" stroke="none" d=" M131.986099,174.813507   C131.958054,174.390518 132.224091,173.859116 132.756470,173.189392   C132.775253,173.602417 132.527710,174.153748 131.986099,174.813507  z"/>
<path fill="#756CEC" opacity="1.000000" stroke="none" d=" M139.917099,124.894295   C139.604889,124.686035 139.301544,124.164619 139.033691,123.329872   C139.354767,123.538078 139.640350,124.059608 139.917099,124.894295  z"/>
<path fill="#756CEC" opacity="1.000000" stroke="none" d=" M138.880432,122.043831   C138.700928,122.041054 138.483109,121.797485 138.258209,121.302902   C138.541367,121.228874 138.738373,121.479263 138.880432,122.043831  z"/>
<path fill="#4539E7" opacity="1.000000" stroke="none" d=" M53.063629,184.246445   C54.313103,184.717026 55.588329,185.535492 56.943958,186.672043   C55.345673,186.794342 53.790314,186.396027 53.063629,184.246445  z"/>
<path fill="#382BDC" opacity="1.000000" stroke="none" d=" M59.108673,188.398834   C59.285633,188.291245 59.601513,188.386276 60.033661,188.707657   C59.801231,188.953094 59.500454,188.842255 59.108673,188.398834  z"/>
<path fill="#4539E7" opacity="1.000000" stroke="none" d=" M51.090393,182.242615   C51.273224,182.186340 51.556797,182.353363 51.913708,182.764465   C51.654934,182.925629 51.389633,182.744751 51.090393,182.242615  z"/>
<path fill="#4539E7" opacity="1.000000" stroke="none" d=" M49.072678,180.313660   C49.318893,180.125183 49.582394,180.277771 49.826504,180.798981   C49.592991,180.935043 49.353943,180.764069 49.072678,180.313660  z"/>
<path fill="#7169ED" opacity="1.000000" stroke="none" d=" M35.721741,126.073120   C35.723034,127.758476 35.341049,129.509598 34.855602,131.634216   C34.623398,132.119873 34.494652,132.232025 34.181641,132.166290   C34.447906,130.039368 32.906052,127.633545 35.721741,126.073120  z"/>
<path fill="#7169ED" opacity="1.000000" stroke="none" d=" M37.586258,121.088608   C37.551376,122.374878 37.130123,123.746857 36.437325,125.367928   C36.230862,124.071030 35.298817,122.292946 37.586258,121.088608  z"/>
<path fill="#635AED" opacity="1.000000" stroke="none" d=" M34.041561,132.396088   C33.997372,131.988403 34.374874,131.994095 34.563507,132.000900   C34.727257,132.400970 34.702374,132.794250 34.459503,133.398239   C34.189598,133.340561 34.137672,133.072159 34.041561,132.396088  z"/>
<path fill="#5045EC" opacity="1.000000" stroke="none" d=" M141.904236,150.609283   C141.594757,150.604477 141.540222,150.415802 141.842804,150.070831   C142.007126,150.149826 141.993530,150.320114 141.904236,150.609283  z"/>
<path fill="#564CE8" opacity="1.000000" stroke="none" d=" M38.075302,164.201965   C38.410126,164.379486 38.734070,164.872498 39.064278,165.672791   C38.735165,165.492538 38.399792,165.005005 38.075302,164.201965  z"/>
<path fill="#564CE8" opacity="1.000000" stroke="none" d=" M39.041969,166.236084   C39.383049,166.412643 39.722263,166.892838 40.022671,167.673859   C39.669281,167.496353 39.354694,167.018036 39.041969,166.236084  z"/>
<path fill="#4539E7" opacity="1.000000" stroke="none" d=" M41.112579,170.220886   C41.541039,170.354828 41.958855,170.843552 42.429199,171.660019   C41.721790,171.810196 41.234753,171.365967 41.112579,170.220886  z"/>
<path fill="#4539E7" opacity="1.000000" stroke="none" d=" M40.187740,168.932037   C40.432888,168.876831 40.735641,169.111526 41.096729,169.632111   C40.851826,169.685989 40.548584,169.453949 40.187740,168.932037  z"/>
<path fill="#6C63EE" opacity="1.000000" stroke="none" d=" M65.094864,126.164185   C73.868187,110.539078 99.480095,109.097183 109.768837,123.484711   C111.279648,125.597404 113.583092,127.257866 114.207840,130.366486   C111.949928,132.733521 108.625801,128.979996 106.165726,132.203613   C103.975853,132.367493 102.869003,131.048447 101.622841,129.976547   C93.138817,122.678886 85.828476,122.222748 76.285805,128.399979   C75.175964,129.118408 74.145508,129.986847 72.413658,130.126038   C70.343819,127.850998 67.665176,127.452629 65.094864,126.164185  z"/>
<path fill="#5245FE" opacity="1.000000" stroke="none" d=" M76.970993,168.308655   C76.555298,168.222794 76.223808,168.229340 76.108620,168.110107   C74.328270,166.527161 72.464973,165.367203 70.185684,164.242447   C69.891838,164.090378 69.991646,164.016479 69.954132,164.065964   C69.197983,163.102386 68.279427,162.279984 67.115967,161.275742   C66.859970,161.104492 66.946869,161.042465 66.931290,161.093521   C66.777069,160.827942 66.582352,160.551727 66.099945,160.195007   C65.876938,160.067871 65.977783,160.032104 65.942749,160.072540   C65.421524,159.203354 65.120346,158.187820 64.123405,157.240814   C63.546452,156.951248 63.305923,156.745850 63.142998,156.194397   C63.032093,154.929642 63.001911,153.918243 63.874565,152.742981   C67.333191,151.080246 69.855324,151.927734 72.011169,154.577682   C73.140968,155.966415 74.374733,157.377655 76.727791,157.692932   C77.814232,157.962753 78.482460,158.271042 79.371170,158.924408   C84.841965,163.796265 90.323883,163.087555 96.218063,159.823975   C96.711372,159.515091 96.918358,159.405075 97.453842,159.165054   C99.428787,158.733139 100.903114,157.902634 102.886597,157.473221   C105.049446,157.671829 106.790573,158.015961 108.320526,159.730118   C108.692047,160.565216 108.721260,161.077377 108.499237,161.970062   C108.384697,162.342773 108.184036,162.118301 108.263794,162.245972   C106.965294,162.585159 106.364838,163.802292 105.265656,164.865936   C105.081947,165.119720 105.028397,165.030380 105.075119,165.053391   C104.928574,165.201447 104.735321,165.326477 104.269577,165.663574   C103.997101,165.875641 103.773544,166.149933 103.598724,166.177139   C95.049759,170.559448 86.432411,172.023270 76.970993,168.308655  z"/>
<path fill="#685EF7" opacity="1.000000" stroke="none" d=" M64.903221,125.903671   C67.511337,126.549469 71.495285,124.420593 72.037285,130.022034   C71.594574,131.332458 71.248489,132.002029 70.978088,133.025543   C70.839523,133.497269 70.778252,133.685898 70.607834,134.155457   C70.419395,134.623306 70.340096,134.810226 70.138924,135.282043   C69.938103,135.762100 69.859154,135.957260 69.674149,136.454514   C69.363693,137.394241 69.216660,138.045273 69.058052,139.066910   C68.771187,140.553909 68.372963,141.655334 68.470901,142.832321   C68.664993,145.164841 69.139870,147.686493 65.722488,148.070847   C62.435654,148.440491 60.274879,147.166183 59.670696,143.310608   C59.526546,141.502350 59.515892,140.062134 59.670597,138.219910   C59.764305,137.662170 59.692657,137.506409 59.813030,137.179596   C60.005054,137.008530 59.999542,137.000610 60.003113,137.001160   C60.545906,136.503204 60.506863,135.785828 60.722015,134.821793   C60.906017,133.412247 61.072571,132.338989 61.517220,131.091583   C63.106556,130.172989 63.407642,128.883194 63.808258,127.270264   C63.999836,126.996834 64.000000,127.000000 63.998451,127.000259   C64.236908,126.770401 64.475937,126.539291 64.824997,126.083984   C64.935997,125.860786 64.927231,125.928299 64.903221,125.903671  z"/>
<path fill="#635AED" opacity="1.000000" stroke="none" d=" M105.475586,133.092651   C107.540634,128.233322 108.620506,127.964661 113.882530,130.746735   C114.267204,130.710587 114.235588,130.764297 114.209244,130.780945   C114.591125,132.704773 114.601761,134.709518 115.830063,136.744781   C117.856285,141.244904 116.968018,145.433823 115.641991,149.921860   C112.737244,149.892502 111.519081,145.874649 107.840805,147.128998   C106.784096,145.821609 106.723473,144.556656 106.580948,142.923599   C106.192833,139.503616 105.082207,136.565155 105.475586,133.092651  z"/>
<path fill="#7169ED" opacity="1.000000" stroke="none" d=" M115.503799,107.445580   C122.101837,108.283730 124.863846,112.619789 122.045403,117.118088   C120.473831,119.626350 118.128769,120.621765 115.216042,120.060555   C112.251869,119.489426 110.549217,117.623138 110.238716,114.641479   C109.852486,110.932625 111.734230,108.692291 115.503799,107.445580  z"/>
<path fill="#5A4EFE" opacity="1.000000" stroke="none" d=" M107.849670,147.216278   C113.066803,144.154205 113.066803,144.154205 115.078323,149.996033   C115.342049,150.634720 115.274414,151.045044 115.050926,151.728485   C114.792969,152.145004 114.690872,152.288376 114.619232,152.694031   C114.730057,153.272614 114.655106,153.546402 114.241081,153.901123   C111.916138,155.778763 111.494003,159.014969 108.381897,160.119263   C106.503387,159.510910 104.958984,159.003387 103.194153,158.227386   C102.631210,157.655182 102.452019,157.271042 102.471161,156.492432   C102.635284,155.973404 102.740341,155.780304 103.057724,155.338440   C104.132568,154.399384 104.680290,153.516724 104.987289,152.121506   C105.158249,151.612228 105.237076,151.412094 105.467300,150.927872   C106.466118,149.674942 106.824905,148.411804 107.849670,147.216278  z"/>
<path fill="#5950DC" opacity="1.000000" stroke="none" d=" M59.411789,143.330185   C61.230209,143.293808 60.810375,145.134125 61.718597,146.037781   C63.088573,147.400909 64.827560,147.211380 66.414841,146.858749   C68.655190,146.361069 67.209717,144.741852 67.070412,143.630066   C66.853394,141.898087 67.368233,140.344757 67.940384,138.378479   C68.251808,137.902344 68.509117,137.813995 69.094833,137.966675   C71.059135,141.420731 70.104439,145.005630 70.883110,148.708893   C70.681274,151.120789 69.429420,151.697159 67.549477,151.575058   C66.336975,151.496292 64.971565,150.979340 63.979984,152.641434   C63.818748,153.810867 63.719200,154.665512 63.375866,155.736084   C60.355766,152.343704 59.780331,148.043549 59.411789,143.330185  z"/>
<path fill="#5147D9" opacity="1.000000" stroke="none" d=" M76.804832,168.519806   C77.375992,168.157196 78.350243,167.768707 78.994110,168.074921   C87.270195,172.010925 94.877983,168.497986 103.007156,166.145279   C95.154823,172.331589 86.276405,172.308395 76.804832,168.519806  z"/>
<path fill="#5147D9" opacity="1.000000" stroke="none" d=" M108.052391,160.411880   C110.570091,158.712723 110.774132,155.322937 113.717354,154.057312   C113.364922,157.341797 111.234711,159.758438 108.689980,162.224731   C108.275459,161.830292 108.166222,161.317825 108.052391,160.411880  z"/>
<path fill="#5147D9" opacity="1.000000" stroke="none" d=" M70.033661,164.395416   C72.667923,163.714905 74.375412,165.342911 75.950638,167.645004   C73.578964,167.734192 71.950462,166.087814 70.033661,164.395416  z"/>
<path fill="#6C63EE" opacity="1.000000" stroke="none" d=" M116.129349,136.636047   C113.532448,135.913559 114.009201,133.685806 114.126450,131.205414   C115.547531,132.362991 115.903511,134.296234 116.129349,136.636047  z"/>
<path fill="#5147D9" opacity="1.000000" stroke="none" d=" M105.400444,165.077454   C105.066513,163.400528 105.755310,162.289230 107.978432,162.280426   C107.821991,163.609238 106.817810,164.368912 105.400444,165.077454  z"/>
<path fill="#5147D9" opacity="1.000000" stroke="none" d=" M66.937210,161.417938   C68.528564,161.005600 69.580666,161.727234 69.916855,163.758423   C68.535782,163.824051 67.747055,162.811874 66.937210,161.417938  z"/>
<path fill="#6C63EE" opacity="1.000000" stroke="none" d=" M63.711189,127.154846   C63.803005,128.394211 64.611061,130.169983 62.169643,130.890274   C62.337723,129.715912 62.880131,128.514389 63.711189,127.154846  z"/>
<path fill="#5147D9" opacity="1.000000" stroke="none" d=" M63.915775,157.372971   C65.453972,157.031464 66.011978,157.933350 65.941483,159.743195   C64.770622,159.698685 64.403015,158.663803 63.915775,157.372971  z"/>
<path fill="#5950DC" opacity="1.000000" stroke="none" d=" M60.512459,134.743134   C60.674877,135.171463 60.610291,135.857407 60.276188,136.772522   C60.099606,136.334717 60.192532,135.667725 60.512459,134.743134  z"/>
<path fill="#6C63EE" opacity="1.000000" stroke="none" d=" M64.689209,125.961967   C64.774864,126.158852 64.613731,126.456909 64.224747,126.877747   C64.145416,126.688057 64.293922,126.375603 64.689209,125.961967  z"/>
<path fill="#5950DC" opacity="1.000000" stroke="none" d=" M59.850807,137.105225   C60.063515,137.199448 60.055611,137.387558 59.908649,137.695389   C59.559357,137.664749 59.512894,137.459412 59.850807,137.105225  z"/>
<path fill="#5147D9" opacity="1.000000" stroke="none" d=" M65.940857,160.333862   C66.174721,160.252396 66.472504,160.436920 66.843002,160.882996   C66.612068,160.962997 66.308426,160.781418 65.940857,160.333862  z"/>
<path fill="#635AED" opacity="1.000000" stroke="none" d=" M114.799171,152.740280   C114.336983,152.691208 114.317207,152.417969 114.742722,152.069107   C114.912933,152.175827 114.930786,152.350052 114.799171,152.740280  z"/>
<path fill="#5147D9" opacity="1.000000" stroke="none" d=" M104.256699,165.872330   C104.097542,165.536972 104.309174,165.295868 104.876907,165.114380   C104.919983,165.340607 104.718140,165.604813 104.256699,165.872330  z"/>
<path fill="#010107" opacity="1.000000" stroke="none" d=" M70.102158,150.418732   C68.887459,146.435898 68.463531,142.700073 68.877846,138.433197   C68.577797,137.527435 68.497078,137.042679 68.856300,136.247803   C69.112587,135.968338 69.257568,135.781464 69.192749,135.682556   C69.143745,135.152512 69.296661,134.774109 69.795464,134.224075   C70.023605,134.007156 69.996086,134.004028 70.005409,134.014832   C70.810097,132.958786 70.558586,131.414108 71.919357,130.305023   C72.203598,130.134460 72.173225,130.117706 72.188477,130.137726   C81.370247,122.074669 89.046013,120.568344 97.702927,125.149719   C100.846817,126.813522 103.157173,129.347839 105.381302,132.488419   C106.370079,135.586960 107.107742,138.434219 107.929192,141.655685   C106.620087,144.658463 108.486214,147.870071 106.261383,150.699738   C106.006416,151.004059 105.775810,151.213348 105.764862,151.368668   C105.564552,153.203430 104.609131,154.425568 103.099442,155.667664   C102.811668,155.846710 102.970444,155.958908 102.904678,155.887329   C101.669624,157.560471 100.185158,158.928482 97.859528,159.732819   C97.519722,159.768433 97.209724,159.787750 97.110046,159.906830   C91.316925,163.555389 85.514359,163.278381 79.322350,160.255096   C78.573074,159.662308 78.142212,159.338272 77.435669,158.972015   C73.733772,157.142395 70.858078,154.893005 70.102158,150.418732  z"/>
<path fill="#5147D9" opacity="1.000000" stroke="none" d=" M69.691559,150.348480   C71.931282,153.112579 73.844406,156.182297 77.010223,158.625275   C74.396797,159.486679 72.727280,157.642380 71.479660,155.805588   C69.749367,153.258179 67.554337,152.593719 64.338196,152.959839   C62.156109,151.794205 61.273411,150.525009 64.222687,150.106430   C65.908936,149.867111 67.704453,150.397690 69.691559,150.348480  z"/>
<path fill="#5147D9" opacity="1.000000" stroke="none" d=" M79.059952,160.351410   C84.734314,161.814697 90.470947,162.577621 96.618538,160.056732   C94.248383,163.193893 90.470428,164.266922 86.643379,163.756943   C84.078316,163.415100 81.233658,162.684723 79.059952,160.351410  z"/>
<path fill="#5147D9" opacity="1.000000" stroke="none" d=" M97.902817,159.836212   C99.081253,158.508301 100.642784,157.248154 102.521614,155.901886   C102.883957,156.291504 102.929001,156.767258 102.973892,157.600952   C101.475624,158.762711 100.307289,160.361313 97.902817,159.836212  z"/>
<path fill="#6C63EE" opacity="1.000000" stroke="none" d=" M71.826416,130.146332   C71.648033,131.302383 71.092468,132.470291 70.275818,133.831940   C70.204765,132.629623 69.360794,130.850067 71.826416,130.146332  z"/>
<path fill="#6C63EE" opacity="1.000000" stroke="none" d=" M68.849777,136.129639   C69.100204,136.423416 69.087830,136.878494 68.959122,137.657501   C68.842804,137.981415 68.418678,137.982803 68.206589,137.986755   C68.191986,137.424118 68.389481,136.857513 68.849777,136.129639  z"/>
<path fill="#6C63EE" opacity="1.000000" stroke="none" d=" M69.767258,134.195984   C69.905510,134.412094 69.787415,134.817017 69.398636,135.402802   C69.255600,135.184021 69.383255,134.784409 69.767258,134.195984  z"/>
<path fill="#5147D9" opacity="1.000000" stroke="none" d=" M106.361893,150.941818   C106.556648,148.230515 107.106873,145.456955 107.835037,142.356659   C108.037918,143.421967 108.062851,144.814041 108.103622,146.625702   C107.759529,148.362671 108.542503,150.097992 106.361893,150.941818  z"/>
<path fill="#5147D9" opacity="1.000000" stroke="none" d=" M103.202072,155.855698   C103.609833,154.537567 104.407997,153.228424 105.480042,151.721649   C106.089882,153.496933 106.083618,155.299484 103.202072,155.855698  z"/>
</svg>